{"accessors" : [{"bufferView" : 0, "byteOffset" : 0, "componentType" : 5123, "count" : 852, "type" : "SCALAR", "max" : [851], "min" : [0]}, {"bufferView" : 1, "byteOffset" : 0, "componentType" : 5126, "count" : 852, "type" : "VEC3", "max" : [34.127281188964844, 21.117279052734375, 7.300000190734863], "min" : [-0.12727899849414825, -0.11745540052652359, -0.30000001192092896], "name" : "POSITION"}, {"bufferView" : 1, "byteOffset" : 12, "componentType" : 5126, "count" : 852, "type" : "VEC3", "max" : [0.6428205370903015, 0.7672420740127563, 1.0000044107437134], "min" : [-0.6451932787895203, -0.7684949040412903, -1.0000044107437134], "name" : "NORMAL"}, {"bufferView" : 1, "byteOffset" : 24, "componentType" : 5126, "count" : 852, "type" : "VEC2", "max" : [1.68573796749115, 1.003419041633606], "min" : [0.8800866007804871, 0.45719999074935913], "name" : "TEXCOORD_0"}], "asset" : {"generator" : "Aspose.3D 24.6.0", "version" : "2.0"}, "buffers" : [{"uri" : "buffer.bin", "byteLength" : 28976}], "bufferViews" : [{"buffer" : 0, "byteOffset" : 0, "byteLength" : 1704, "target" : 34963}, {"buffer" : 0, "byteOffset" : 1708, "byteLength" : 27264, "byteStride" : 32, "target" : 34962}], "meshes" : [{"primitives" : [{"attributes" : {"POSITION" : 1, "NORMAL" : 2, "TEXCOORD_0" : 3}, "indices" : 0, "mode" : 4}], "name" : "Geometry"}], "nodes" : [{"matrix" : [0.04048654889253118, 0.023168537328701767, 0.03773669615667534, 0, 0.00012298775120761274, 0.051073126123335165, -0.03148842107827815, 0, -0.044281195024363736, 0.021324977515543866, 0.034415419526366564, 0, -0.5345784732452926, -1.0047660054772756, -0.4313520416308597, 1], "mesh" : 0, "name" : "Object_39"}, {"children" : [0], "name" : "Scene"}, {"children" : [1], "name" : "Root"}], "scene" : 0, "scenes" : [{"nodes" : [2]}]}