<svg width="27" height="21" viewBox="0 0 27 21" fill="none" xmlns="http://www.w3.org/2000/svg">
<path d="M2.7 21C1.9575 21 1.32188 20.743 0.793125 20.2289C0.264375 19.7148 0 19.0969 0 18.375V2.625C0 1.90312 0.264375 1.28516 0.793125 0.771094C1.32188 0.257031 1.9575 0 2.7 0H24.3C25.0425 0 25.6781 0.257031 26.2069 0.771094C26.7356 1.28516 27 1.90312 27 2.625V18.375C27 19.0969 26.7356 19.7148 26.2069 20.2289C25.6781 20.743 25.0425 21 24.3 21H2.7ZM13.5 11.8125L2.7 5.25V18.375H24.3V5.25L13.5 11.8125ZM13.5 9.1875L24.3 2.625H2.7L13.5 9.1875ZM2.7 5.25V2.625V18.375V5.25Z" fill="#7FA5AF"/>
</svg>
