<svg width="21" height="27" viewBox="0 0 21 27" fill="none" xmlns="http://www.w3.org/2000/svg">
<path d="M10.5 13.5C11.2219 13.5 11.8398 13.2356 12.3539 12.7069C12.868 12.1781 13.125 11.5425 13.125 10.8C13.125 10.0575 12.868 9.42188 12.3539 8.89312C11.8398 8.36438 11.2219 8.1 10.5 8.1C9.77812 8.1 9.16016 8.36438 8.64609 8.89312C8.13203 9.42188 7.875 10.0575 7.875 10.8C7.875 11.5425 8.13203 12.1781 8.64609 12.7069C9.16016 13.2356 9.77812 13.5 10.5 13.5ZM10.5 23.4225C13.1687 20.9025 15.1484 18.6131 16.4391 16.5544C17.7297 14.4956 18.375 12.6675 18.375 11.07C18.375 8.6175 17.6148 6.60938 16.0945 5.04562C14.5742 3.48187 12.7094 2.7 10.5 2.7C8.29062 2.7 6.42578 3.48187 4.90547 5.04562C3.38516 6.60938 2.625 8.6175 2.625 11.07C2.625 12.6675 3.27031 14.4956 4.56094 16.5544C5.85156 18.6131 7.83125 20.9025 10.5 23.4225ZM10.5 27C6.97813 23.9175 4.34766 21.0544 2.60859 18.4106C0.869531 15.7669 0 13.32 0 11.07C0 7.695 1.05547 5.00625 3.16641 3.00375C5.27734 1.00125 7.72188 0 10.5 0C13.2781 0 15.7227 1.00125 17.8336 3.00375C19.9445 5.00625 21 7.695 21 11.07C21 13.32 20.1305 15.7669 18.3914 18.4106C16.6523 21.0544 14.0219 23.9175 10.5 27Z" fill="#7FA5AF"/>
</svg>
