<svg width="27" height="27" viewBox="0 0 27 27" fill="none" xmlns="http://www.w3.org/2000/svg">
<path d="M25.425 27C22.3 27 19.2125 26.3188 16.1625 24.9563C13.1125 23.5938 10.3375 21.6625 7.8375 19.1625C5.3375 16.6625 3.40625 13.8875 2.04375 10.8375C0.68125 7.7875 0 4.7 0 1.575C0 1.125 0.15 0.75 0.45 0.45C0.75 0.15 1.125 0 1.575 0H7.65C8 0 8.3125 0.11875 8.5875 0.35625C8.8625 0.59375 9.025 0.875 9.075 1.2L10.05 6.45C10.1 6.85 10.0875 7.1875 10.0125 7.4625C9.9375 7.7375 9.8 7.975 9.6 8.175L5.9625 11.85C6.4625 12.775 7.05625 13.6688 7.74375 14.5313C8.43125 15.3938 9.1875 16.225 10.0125 17.025C10.7875 17.8 11.6 18.5188 12.45 19.1813C13.3 19.8438 14.2 20.45 15.15 21L18.675 17.475C18.9 17.25 19.1938 17.0813 19.5563 16.9688C19.9188 16.8563 20.275 16.825 20.625 16.875L25.8 17.925C26.15 18.025 26.4375 18.2063 26.6625 18.4688C26.8875 18.7313 27 19.025 27 19.35V25.425C27 25.875 26.85 26.25 26.55 26.55C26.25 26.85 25.875 27 25.425 27ZM4.5375 9L7.0125 6.525L6.375 3H3.0375C3.1625 4.025 3.3375 5.0375 3.5625 6.0375C3.7875 7.0375 4.1125 8.025 4.5375 9ZM17.9625 22.425C18.9375 22.85 19.9313 23.1875 20.9438 23.4375C21.9563 23.6875 22.975 23.85 24 23.925V20.625L20.475 19.9125L17.9625 22.425Z" fill="#7FA5AF"/>
</svg>
